<svg xmlns="http://www.w3.org/2000/svg" width="90" height="45" viewBox="0 0 111 38"><g fill="#00a0ff"><path d="M29.8 4.1c-.7-.5-1.4-1-2.2-1.4-.5-.3-1.2-.2-1.6.3l-4.7 6.2-.3.4c-.5.7-1.3 1-2.1 1H18c-2.3.1-4.6 1.3-6.1 3.3-1.2 1.6-1.8 3.5-1.7 5.4 0 .3.2.6.5.8.6.3 1.1.9 1.3 1.6.2 1.1-.5 2.1-1.5 2.4-1.2.4-2.5-.4-2.8-1.6-.2-.7 0-1.3.4-1.8.2-.3.3-.6.3-1-.2-2.4.4-4.9 2-7 2-2.6 5-4 8.1-4 .6 0 1.1-.3 1.5-.8l4.3-5.7c.3-.4.1-1.1-.4-1.2-7.2-2-15.2.4-20.1 6.7-6.2 8.1-4.7 19.8 3.4 26.1.8.6 1.5 1.1 2.4 1.6.5.3 1.2.2 1.6-.3l4.7-6.2.3-.4c.5-.7 1.3-1 2.1-1h.9c2.3-.1 4.6-1.3 6.1-3.3 1.2-1.6 1.8-3.5 1.7-5.4 0-.3-.2-.6-.5-.8-.6-.3-1.1-.9-1.3-1.6-.2-1.1.5-2.1 1.5-2.4 1.2-.4 2.5.4 2.8 1.6.2.7 0 1.3-.4 1.8-.2.3-.3.6-.3 1 .2 2.4-.4 4.9-2 7-2 2.6-5 4-8.1 4-.6 0-1.1.3-1.5.8L13 35.6c-.3.4-.1 1.1.4 1.2 7.2 2.1 15.3-.3 20.1-6.7 6.2-8.1 4.5-19.8-3.7-26M60.6 10v-.4c0-.4-.3-.6-.6-.6H45.5c-.3 0-.6.3-.6.6v.9c0 .3.3.6.6.6h12.3c.4 0 .6.3.6.7-.3 2.3-1.4 6.6-4.8 10.7-.2.3-.7.3-.9 0-2.8-3.6-3.7-7.3-3.9-8.7-.1-.3-.3-.5-.6-.5h-.9c-.3 0-.6.3-.5.7.3 1.6 1.3 5.9 4.7 10 .2.2.2.6 0 .8-4 3.7-7.7 4.5-9 4.7-.3 0-.5.3-.5.6v.9c0 .3.3.6.6.6 1.5-.2 5.7-1.1 10.2-5.3.2-.2.6-.2.8 0 2.2 2 5 4 8.8 5.2.3.1.6-.1.7-.4l.3-.8c.1-.3-.1-.6-.4-.7-3.5-1.1-6-2.9-8-4.7-.2-.2-.2-.6 0-.8 5.5-6.7 5.6-13.8 5.6-14.1M70.6 8.1h-.9c-.3 0-.6.3-.6.6v3.1c0 .3-.3.6-.6.6h-2.1c-.3 0-.6.3-.6.6v.9c0 .3.3.6.6.6h2.1c.3 0 .6.3.6.6v4.5c0 .3-.3.6-.6.6h-2.1c-.3 0-.6.3-.6.6v.9c0 .3.3.6.6.6h2.1c.3 0 .6.3.6.6v4.3c0 .9-.4 2.4-2.7 2.6-.3 0-.5.3-.5.6v.6c0 .3.3.6.6.6 2.3-.2 4.7-1.5 4.7-4.7v-4.3c0-.3.3-.6.6-.6h1.9c.3 0 .6-.3.6-.6v-.9c0-.3-.3-.6-.6-.6h-1.9c-.3 0-.6-.3-.6-.6v-4.5c0-.3.3-.6.6-.6h1.9c.3 0 .6-.3.6-.6v-.9c0-.3-.3-.6-.6-.6h-1.9c-.3 0-.6-.3-.6-.6V8.6c0-.3-.2-.5-.6-.5M75.2 30.8c0 .3.3.6.6.6h6.5c2.9 0 5.2-2.2 5.2-5V12.7c0-.3-.3-.6-.6-.6H75.8c-.3 0-.6.3-.6.6zm7.2-1.4h-4.5c-.3 0-.6-.3-.6-.6v-6.2c0-.3.3-.6.6-.6H85c.3 0 .6.3.6.6v3.8c0 1.7-1.5 3-3.2 3m3.2-14.7v4.7c0 .3-.3.6-.6.6h-7.1c-.3 0-.6-.3-.6-.6v-4.7c0-.3.3-.6.6-.6H85c.3.1.6.3.6.6M84.1 8h-5.8c-.3 0-.6.3-.6.6v.9c0 .3.3.6.6.6h5.8c.3 0 .6-.3.6-.6v-.9c0-.3-.2-.6-.6-.6M106.2 8.9h-12c-.3 0-.6.3-.6.6v.9c0 .3.3.6.6.6h12c.3 0 .6-.3.6-.6v-.9c0-.3-.3-.6-.6-.6M101.1 19.2h8.4c.3 0 .6-.3.6-.6v-.9c0-.3-.3-.6-.6-.6H90.9c-.3 0-.6.3-.6.6v.9c0 .3.3.6.6.6h5.7c.5 0 .7.5.5.9L93.3 27c-.1.2-.2.3-.2.5-.3.9-.2 1.9.4 2.7s1.6 1.4 2.7 1.4h10.4c.5 0 .9-.2 1.1-.6s.3-.9.1-1.3l-2.4-4.7c-.1-.3-.5-.4-.8-.2l-.8.4c-.3.1-.4.5-.2.8l1.4 2.8c.2.4-.1.8-.5.8h-8.3c-.4 0-.8-.2-1-.5-.1-.1-.3-.4-.2-.8 0-.1 0-.1.1-.2l4.6-8.1c.3-.5.8-.8 1.4-.8"/></g></svg>